# xmcd
#
# Track frame offsets:
#	150
#	16541
#	33445
#	53224
#	67401
#	87311
#	106343
#	123416
#	143602
#	161120
#	179077
#	201328
#	220064
#	242760
#	260740
#
# Disc length: 3743 seconds
#
# Revision: 1
# Processed by: cddbd v1.4PL0 Copyright (c) Steve Scherf et al.
# Submitted via: audiograbber 1.82.02
#
DISCID=df0e9d0f
DTITLE=Charlie Landsborough - Once In A While
DYEAR=2001
DGENRE=Country
TTITLE0=What'll I Do 
TTITLE1=I Don't Know Why I Love You But I Do
TTITLE2=Bewitched
TTITLE3=Me And The Elephant 
TTITLE4=Imagine
TTITLE5=Always On My Mind
TTITLE6=Gasoline Alley
TTITLE7=Once In A While
TTITLE8=Fields Of Gold
TTITLE9=If You Could Read My Mind
TTITLE10=I'll Take You Home Again, Kathleen
TTITLE11=Just One More Chance 
TTITLE12=Love Me
TTITLE13=Every Time We Say Goodbye
TTITLE14=Once In A While (Radio Edit)
EXTD=
EXTT0=
EXTT1=
EXTT2=
EXTT3=
EXTT4=
EXTT5=
EXTT6=
EXTT7=
EXTT8=
EXTT9=
EXTT10=
EXTT11=
EXTT12=
EXTT13=
EXTT14=
PLAYORDER=
